<svg width="20" height="20" viewBox="0 0 20 20" fill="none" xmlns="http://www.w3.org/2000/svg">
<g clip-path="url(#clip0_108001_856)">
<path d="M17.272 8.11945C17.272 7.93243 17.1979 7.75307 17.0659 7.62083C16.9339 7.48859 16.7549 7.4143 16.5683 7.4143C16.3816 7.4143 16.2026 7.48859 16.0706 7.62083C15.9386 7.75307 15.8645 7.93243 15.8645 8.11945H17.272ZM4.13486 8.11945C4.13486 7.93243 4.06071 7.75307 3.92873 7.62083C3.79674 7.48859 3.61774 7.4143 3.43108 7.4143C3.24443 7.4143 3.06542 7.48859 2.93344 7.62083C2.80145 7.75307 2.7273 7.93243 2.7273 8.11945H4.13486ZM17.9477 10.4982C18.0121 10.5674 18.0898 10.623 18.1761 10.6616C18.2625 10.7001 18.3557 10.7208 18.4502 10.7225C18.5446 10.7242 18.6385 10.7067 18.7261 10.6713C18.8138 10.6358 18.8934 10.583 18.9602 10.5161C19.027 10.4491 19.0797 10.3693 19.1151 10.2815C19.1505 10.1937 19.1679 10.0997 19.1662 10.005C19.1646 9.91032 19.1439 9.81695 19.1054 9.73045C19.067 9.64395 19.0115 9.5661 18.9423 9.50155L17.9477 10.4982ZM9.99968 1.53803L10.497 1.03972C10.3651 0.907668 10.1862 0.833496 9.99968 0.833496C9.81317 0.833496 9.6343 0.907668 9.50234 1.03972L9.99968 1.53803ZM1.057 9.50155C0.987859 9.5661 0.932399 9.64395 0.893934 9.73045C0.855468 9.81695 0.834785 9.91032 0.833117 10.005C0.83145 10.0997 0.848833 10.1937 0.884229 10.2815C0.919626 10.3693 0.97231 10.4491 1.03914 10.5161C1.10597 10.583 1.18557 10.6358 1.27321 10.6713C1.36084 10.7067 1.4547 10.7242 1.5492 10.7225C1.6437 10.7208 1.73689 10.7001 1.82322 10.6616C1.90955 10.623 1.98725 10.5674 2.05168 10.4982L1.057 9.50155ZM5.30782 19.1668H14.6915V17.7565H5.30782V19.1668ZM17.272 16.5813V8.11945H15.8645V16.5813H17.272ZM4.13486 16.5813V8.11945H2.7273V16.5813H4.13486ZM18.9423 9.50155L10.497 1.03972L9.50234 2.03634L17.9477 10.4982L18.9423 9.50155ZM9.50234 1.03972L1.057 9.50155L2.05168 10.4982L10.497 2.03634L9.50234 1.03972ZM14.6915 19.1668C15.3759 19.1668 16.0323 18.8944 16.5162 18.4095C17.0002 17.9247 17.272 17.267 17.272 16.5813H15.8645C15.8645 17.23 15.339 17.7565 14.6915 17.7565V19.1668ZM5.30782 17.7565C4.66035 17.7565 4.13486 17.23 4.13486 16.5813H2.7273C2.7273 17.267 2.99918 17.9247 3.48312 18.4095C3.96706 18.8944 4.62343 19.1668 5.30782 19.1668V17.7565Z" fill="#A8B5DB"/>
</g>
<defs>
<clipPath id="clip0_108001_856">
<rect width="20" height="20" fill="white"/>
</clipPath>
</defs>
</svg>
