<svg width="20" height="20" viewBox="0 0 20 20" fill="none" xmlns="http://www.w3.org/2000/svg">
<path fill-rule="evenodd" clip-rule="evenodd" d="M3 1.75C3 1.33579 3.34823 1 3.77778 1H16.2222C16.6517 1 17 1.33579 17 1.75V18.25C17 18.5227 16.8466 18.7738 16.5993 18.906C16.352 19.0381 16.0497 19.0305 15.81 18.886L10 15.3844L4.19 18.886C3.95024 19.0305 3.64803 19.0381 3.40074 18.906C3.15344 18.7738 3 18.5227 3 18.25V1.75ZM4.55556 2.5V16.8969L9.17556 14.1124C9.67998 13.8085 10.32 13.8085 10.8244 14.1124L15.4444 16.8969V2.5H4.55556Z" fill="#151312"/>
</svg>
