<svg width="20" height="20" viewBox="0 0 20 20" fill="none" xmlns="http://www.w3.org/2000/svg">
<g clip-path="url(#clip0_108001_454)">
<path fill-rule="evenodd" clip-rule="evenodd" d="M14.1663 8.3335C14.1663 11.5552 11.5547 14.1668 8.33301 14.1668C5.11134 14.1668 2.49967 11.5552 2.49967 8.3335C2.49967 5.11183 5.11134 2.50016 8.33301 2.50016C11.5547 2.50016 14.1663 5.11183 14.1663 8.3335ZM13.0144 14.1933C11.7314 15.2198 10.1039 15.8335 8.33301 15.8335C4.19087 15.8335 0.833008 12.4756 0.833008 8.3335C0.833008 4.19136 4.19087 0.833496 8.33301 0.833496C12.4751 0.833496 15.833 4.19136 15.833 8.3335C15.833 10.1043 15.2193 11.7318 14.1928 13.0149L18.9223 17.7442C19.2477 18.0697 19.2477 18.5973 18.9223 18.9228C18.5968 19.2482 18.0692 19.2482 17.7437 18.9228L13.0144 14.1933Z" fill="#151312"/>
</g>
<defs>
<clipPath id="clip0_108001_454">
<rect width="20" height="20" fill="white"/>
</clipPath>
</defs>
</svg>
