<svg width="10" height="10" viewBox="0 0 10 10" fill="none" xmlns="http://www.w3.org/2000/svg">
<path d="M5.72093 1.46248L6.45426 2.92914C6.55426 3.13331 6.82093 3.32914 7.04593 3.36664L8.3751 3.58748C9.2251 3.72914 9.4251 4.34581 8.8126 4.95414L7.77926 5.98748C7.60426 6.16248 7.50843 6.49998 7.5626 6.74164L7.85843 8.02081C8.09176 9.03331 7.55426 9.42498 6.65843 8.89581L5.4126 8.15831C5.1876 8.02498 4.81676 8.02498 4.5876 8.15831L3.34176 8.89581C2.4501 9.42498 1.90843 9.02914 2.14176 8.02081L2.4376 6.74164C2.49176 6.49998 2.39593 6.16248 2.22093 5.98748L1.1876 4.95414C0.579264 4.34581 0.775098 3.72914 1.6251 3.58748L2.95426 3.36664C3.1751 3.32914 3.44176 3.13331 3.54176 2.92914L4.2751 1.46248C4.6751 0.666642 5.3251 0.666642 5.72093 1.46248Z" fill="#FFCD1A"/>
</svg>
